<svg width="115" height="21" viewBox="0 0 115 21" fill="none" xmlns="http://www.w3.org/2000/svg">
<path d="M0.171875 13.7891C0.21875 13.7969 0.4375 13.8672 0.828125 14C1.22656 14.125 1.70703 14.2695 2.26953 14.4336C2.83203 14.5898 3.39453 14.7305 3.95703 14.8555C4.52734 14.9727 5.01172 15.0312 5.41016 15.0312C5.75391 15.0312 6.03516 14.9805 6.25391 14.8789C6.47266 14.7773 6.58203 14.5898 6.58203 14.3164C6.58203 14.0195 6.42578 13.75 6.11328 13.5078C5.80078 13.2656 5.39844 13.0156 4.90625 12.7578C4.42188 12.5 3.90234 12.207 3.34766 11.8789C2.80078 11.5508 2.28125 11.1562 1.78906 10.6953C1.30469 10.2344 0.90625 9.68359 0.59375 9.04297C0.28125 8.39453 0.125 7.62109 0.125 6.72266C0.125 5.62109 0.355469 4.69141 0.816406 3.93359C1.27734 3.16797 1.89453 2.55469 2.66797 2.09375C3.44922 1.625 4.32422 1.28516 5.29297 1.07422C6.26953 0.863281 7.26953 0.757812 8.29297 0.757812C9.16016 0.757812 9.98047 0.804688 10.7539 0.898438C11.5273 0.992188 12.1797 1.09375 12.7109 1.20312C13.25 1.3125 13.5898 1.38672 13.7305 1.42578V6.80469C13.7305 6.80469 13.5664 6.76953 13.2383 6.69922C12.918 6.62891 12.5117 6.55078 12.0195 6.46484C11.5352 6.37891 11.0312 6.30078 10.5078 6.23047C9.99219 6.16016 9.53906 6.125 9.14844 6.125C8.78906 6.125 8.51953 6.1875 8.33984 6.3125C8.16016 6.4375 8.07031 6.58594 8.07031 6.75781C8.07031 6.89844 8.14844 7.05469 8.30469 7.22656C8.46094 7.39062 8.64844 7.51953 8.86719 7.61328C9.6875 7.97266 10.4609 8.33984 11.1875 8.71484C11.9141 9.08984 12.5547 9.52344 13.1094 10.0156C13.6641 10.5078 14.0977 11.1094 14.4102 11.8203C14.7305 12.5234 14.8906 13.3867 14.8906 14.4102C14.8906 15.6289 14.582 16.6914 13.9648 17.5977C13.3555 18.5039 12.4727 19.207 11.3164 19.707C10.168 20.207 8.78125 20.457 7.15625 20.457C5.75781 20.457 4.60547 20.3906 3.69922 20.2578C2.79297 20.125 2.08203 19.9766 1.56641 19.8125C1.05078 19.6406 0.6875 19.4883 0.476562 19.3555C0.273438 19.2227 0.171875 19.1562 0.171875 19.1562V13.7891ZM18.5867 1.28516H25.8758V14.3633H32.1688V20H18.5867V1.28516ZM43.3414 20.4336C42.5445 20.4336 41.7086 20.3281 40.8336 20.1172C39.9664 19.9062 39.1422 19.5938 38.3609 19.1797C37.5875 18.7656 36.9273 18.2539 36.3805 17.6445C35.8336 17.0273 35.4898 16.3164 35.3492 15.5117L41.232 13.9062C41.4742 14.375 41.8023 14.7344 42.2164 14.9844C42.6305 15.2266 43.0523 15.3477 43.482 15.3477C44.1539 15.3477 44.7516 15.1445 45.275 14.7383C45.7984 14.3242 46.0602 13.6797 46.0602 12.8047C46.0602 12.7266 46.0602 12.6641 46.0602 12.6172C46.0602 12.5625 46.0523 12.4883 46.0367 12.3945C45.6305 12.4961 45.1695 12.5703 44.6539 12.6172C44.1383 12.6562 43.6227 12.6758 43.107 12.6758C42.068 12.6758 41.0445 12.5938 40.0367 12.4297C39.0289 12.2656 38.1148 11.9805 37.2945 11.5742C36.482 11.168 35.8297 10.6055 35.3375 9.88672C34.8531 9.16016 34.6109 8.23438 34.6109 7.10938C34.6109 6.09375 34.7984 5.22266 35.1734 4.49609C35.5484 3.76172 36.0563 3.15625 36.6969 2.67969C37.3375 2.19531 38.0602 1.8125 38.8648 1.53125C39.6695 1.25 40.5055 1.05078 41.3727 0.933594C42.2398 0.816406 43.0797 0.757812 43.8922 0.757812C45.1656 0.757812 46.3922 0.957031 47.5719 1.35547C48.7516 1.74609 49.8063 2.32422 50.7359 3.08984C51.6734 3.84766 52.4156 4.78125 52.9625 5.89062C53.5094 7 53.7828 8.26953 53.7828 9.69922C53.7828 11.418 53.5211 12.9453 52.9977 14.2812C52.4742 15.6172 51.7398 16.7422 50.7945 17.6562C49.8492 18.5625 48.7438 19.2539 47.4781 19.7305C46.2125 20.1992 44.8336 20.4336 43.3414 20.4336ZM42.7906 8.82031H45.9547C45.9547 8.03906 45.8102 7.35156 45.5211 6.75781C45.232 6.16406 44.8492 5.69922 44.3727 5.36328C43.9039 5.02734 43.3922 4.85938 42.8375 4.85938C42.5406 4.85938 42.2594 4.9375 41.9938 5.09375C41.7281 5.24219 41.5953 5.49219 41.5953 5.84375C41.5953 6.17969 41.6813 6.61719 41.8531 7.15625C42.0328 7.6875 42.3453 8.24219 42.7906 8.82031ZM71.1359 20H64.4914V0.277344H71.1359V20ZM74.75 13.3789C74.75 12.0977 74.9648 10.9375 75.3945 9.89844C75.832 8.85938 76.4258 7.96484 77.1758 7.21484C77.9258 6.46484 78.7773 5.89062 79.7305 5.49219C80.6836 5.08594 81.6797 4.88281 82.7188 4.88281C83.5547 4.88281 84.3711 5.08984 85.168 5.50391C85.9727 5.91016 86.6133 6.48438 87.0898 7.22656L88.7656 5.43359H92.6094V20H88.7656L87.0898 17.5742C86.4883 18.4648 85.6797 19.1641 84.6641 19.6719C83.6484 20.1797 82.6016 20.4336 81.5234 20.4336C80.3359 20.4336 79.2266 20.1797 78.1953 19.6719C77.1641 19.1562 76.332 18.3789 75.6992 17.3398C75.0664 16.293 74.75 14.9727 74.75 13.3789ZM81.7344 13.9531C81.7344 14.3359 81.8242 14.6992 82.0039 15.043C82.1836 15.3867 82.4766 15.5586 82.8828 15.5586C83.2734 15.5586 83.7734 15.4414 84.3828 15.207C84.9922 14.9648 85.6289 14.5625 86.293 14V9.85156C86.0195 9.6875 85.7109 9.60547 85.3672 9.60547C84.9219 9.60547 84.4844 9.74219 84.0547 10.0156C83.625 10.2812 83.2344 10.6328 82.8828 11.0703C82.5391 11.5 82.2617 11.9688 82.0508 12.4766C81.8398 12.9844 81.7344 13.4766 81.7344 13.9531ZM96.6336 0.277344H103.454V7.15625C103.93 6.69531 104.458 6.32422 105.036 6.04297C105.614 5.76172 106.177 5.55859 106.723 5.43359C107.278 5.30078 107.755 5.23438 108.153 5.23438C109.575 5.23438 110.762 5.56641 111.716 6.23047C112.677 6.88672 113.399 7.75391 113.884 8.83203C114.368 9.90234 114.61 11.0586 114.61 12.3008C114.61 12.8242 114.505 13.4414 114.294 14.1523C114.091 14.8555 113.751 15.5742 113.274 16.3086C112.798 17.043 112.157 17.7266 111.352 18.3594C110.555 18.9844 109.563 19.4922 108.376 19.8828C107.196 20.2656 105.794 20.457 104.169 20.457C103.153 20.457 102.001 20.4062 100.712 20.3047C99.4227 20.2031 98.0633 20.0391 96.6336 19.8125V0.277344ZM106.829 10.1094C106.345 10.1094 105.884 10.1992 105.446 10.3789C105.016 10.5586 104.63 10.7695 104.286 11.0117C103.942 11.2461 103.653 11.457 103.419 11.6445V16.0625H104.579C104.977 16.0625 105.376 15.9336 105.774 15.6758C106.173 15.4102 106.54 15.0625 106.876 14.6328C107.212 14.1953 107.481 13.7227 107.684 13.2148C107.887 12.707 107.989 12.207 107.989 11.7148C107.989 11.3477 107.899 10.9883 107.72 10.6367C107.548 10.2852 107.251 10.1094 106.829 10.1094Z" fill="white"/>
</svg>
